<?xml version="1.0" encoding="utf-8"?>
<!-- Generator: Adobe Illustrator 21.0.0, SVG Export Plug-In . SVG Version: 6.00 Build 0)  -->
<svg version="1.1" id="icons" xmlns="http://www.w3.org/2000/svg" xmlns:xlink="http://www.w3.org/1999/xlink" x="0px" y="0px"
	 viewBox="0 0 20.6 37.3" style="enable-background:new 0 0 20.6 37.3;" xml:space="preserve">
<style type="text/css">
	.st0{fill:none;stroke:#EEB36A;stroke-miterlimit:10;}
	.st1{fill:#EFB46A;}
	.st2{fill:none;stroke:#343A3B;stroke-miterlimit:10;}
	.st3{opacity:0.86;fill:none;stroke:#343A3B;stroke-miterlimit:10;}
	.st4{fill:#FAB424;}
	.st5{fill:#343A3B;}
</style>
<path class="st0" d="M19.8,37.2l-2.4-16.2h-5.6v-3.7c3.7-0.6,6.5-3.6,7-7.3c0.7-0.1,1.3-0.9,1.3-1.8c0-1-0.7-1.8-1.5-1.8
	c0,0,0,0-0.1,0c-1-3.5-4.3-6.1-8.1-6.1c-3.9,0-7.1,2.6-8.1,6.1c0,0-0.1,0-0.1,0c-0.9,0-1.6,0.8-1.6,1.8c0,0.9,0.6,1.7,1.4,1.8
	c0.5,3.7,3.3,6.7,7,7.3v3.7H3.3L0.9,37.2"/>
</svg>
