<?xml version="1.0" standalone="no"?>
<!DOCTYPE svg PUBLIC "-//W3C//DTD SVG 20010904//EN"
 "http://www.w3.org/TR/2001/REC-SVG-20010904/DTD/svg10.dtd">
<svg version="1.0" xmlns="http://www.w3.org/2000/svg"
 width="225.000000pt" height="225.000000pt" viewBox="0 0 225.000000 225.000000"
 preserveAspectRatio="xMidYMid meet">
<metadata>
Created by potrace 1.14, written by Peter Selinger 2001-2017
</metadata>
<g transform="translate(0.000000,225.000000) scale(0.100000,-0.100000)"
fill="#333a3b" stroke="none">
<path d="M1005 1960 c-338 -53 -609 -296 -696 -625 -30 -113 -30 -307 0 -420
78 -295 311 -528 606 -606 113 -30 307 -30 420 0 295 78 528 311 606 606 30
113 30 307 0 420 -95 361 -408 612 -780 630 -53 2 -123 0 -156 -5z m417 -537
c316 -316 304 -293 201 -394 -38 -37 -76 -69 -86 -73 -29 -10 -66 16 -167 119
l-95 95 -5 -286 c-6 -345 3 -324 -145 -324 -76 0 -97 3 -116 19 l-24 19 -3
288 -3 287 -108 -107 c-138 -135 -145 -136 -243 -39 -54 54 -68 74 -68 98 0
26 36 66 267 297 232 232 272 268 298 268 26 0 66 -36 297 -267z"/>
</g>
</svg>
