<?xml version="1.0" encoding="utf-8"?>
<!-- Generator: Adobe Illustrator 21.0.0, SVG Export Plug-In . SVG Version: 6.00 Build 0)  -->
<svg version="1.1" id="Layer_1" xmlns="http://www.w3.org/2000/svg" xmlns:xlink="http://www.w3.org/1999/xlink" x="0px" y="0px"
	 viewBox="0 0 19.1 24.9" style="enable-background:new 0 0 19.1 24.9;" xml:space="preserve">
<style type="text/css">
	.st0{fill:#485153;}
	.st1{fill:#8B8A8B;}
	.st2{fill:#FAFDFF;}
	.st3{fill:#F0A997;}
</style>
<g>
	<path class="st0" d="M19.1,7c0,5.4,0,10.9,0,16.3c-0.1,0.4-0.1,0.8-0.4,1.1c-0.3,0.3-0.8,0.3-1.1,0.4c-5.3,0-10.6,0-16,0
		c-0.4-0.1-0.8-0.1-1.1-0.4s-0.3-0.7-0.4-1.1C0,16.1,0,8.8,0,1.5c0.1-0.4,0.1-0.8,0.4-1.1S1.2,0.1,1.6,0c3.5,0,7,0,10.4,0
		c0.2,0.2,0.2,0.5,0.2,0.7c0,1.3,0,2.6,0,3.9c0,0.2,0,0.4,0,0.6c0.1,1.1,0.6,1.6,1.7,1.6c1.4,0,2.9,0,4.3,0
		C18.6,6.8,18.9,6.7,19.1,7z"/>
	<path class="st1" d="M19.1,7c-1.7,0-3.4,0-5.1,0c-1.3,0-1.9-0.6-1.9-1.9c0-1.7,0-3.4,0-5.1c0.3,0,0.5,0,0.8,0
		c0.4,0.1,0.6,0.4,0.9,0.7c1.5,1.5,3.1,3.1,4.6,4.6c0.3,0.3,0.5,0.5,0.7,0.9C19.1,6.4,19.1,6.7,19.1,7z"/>
	<path class="st2" d="M1.6,0C0.8,0.2,0.3,0.8,0,1.5C0,1,0,0.6,0,0.1C0,0,0,0,0.2,0C0.7,0,1.2,0,1.6,0z"/>
	<path class="st2" d="M17.5,24.9c0.8-0.3,1.3-0.8,1.5-1.5c0,0.5,0,0.9,0,1.4c0,0.2,0,0.2-0.2,0.2C18.4,24.9,18,24.9,17.5,24.9z"/>
	<g>
		<path class="st3" d="M3.2,9.8c0-1.2,0.7-1.8,2-1.8c0.3,0,0.6,0,0.9,0.1L6,8.8c-0.3,0-0.5-0.1-0.7-0.1c-0.2,0-0.4,0-0.6,0.1
			C4.3,9,4.1,9.4,4.1,10.1v1.2h1.6V12H4.1v5.7H3.2V12H2.5l0.1-0.8h0.6V9.8z"/>
		<path class="st3" d="M7.3,9.6C7.2,9.6,7,9.5,6.9,9.4C6.8,9.3,6.8,9.1,6.8,9s0-0.3,0.1-0.4C7,8.4,7.2,8.4,7.4,8.4
			c0.2,0,0.3,0.1,0.4,0.2C7.9,8.6,7.9,8.8,7.9,9c0,0.2-0.1,0.3-0.2,0.4C7.6,9.5,7.5,9.6,7.3,9.6z M7.8,11.2v6.6H6.9v-6.5L7.8,11.2z"
			/>
		<path class="st3" d="M9.6,17.8V8.1L10.5,8v9.7H9.6z"/>
		<path class="st3" d="M12.3,14.8c0,1.5,0.7,2.3,2.2,2.3c0.6,0,1.2-0.1,1.7-0.2c0.1,0,0.2-0.1,0.3-0.1l0.2,0.7
			c-0.3,0.2-0.9,0.3-1.7,0.4c-0.2,0-0.5,0-0.7,0c-0.7,0-1.3-0.2-1.8-0.5c-0.7-0.5-1-1.3-1-2.5s0.3-2,0.9-2.7s1.3-0.9,2.2-0.9
			c0.9,0,1.5,0.3,1.9,0.8c0.3,0.4,0.5,1,0.5,1.8c0,0.2,0,0.4,0,0.5h-4.6c0,0.1,0,0.1,0,0.2V14.8z M14.6,12c-0.5,0-1,0.2-1.4,0.5
			c-0.4,0.3-0.6,0.7-0.8,1.3h3.8c0-1-0.4-1.5-1.1-1.7C15,12.1,14.8,12,14.6,12z"/>
	</g>
</g>
</svg>
