<?xml version="1.0" encoding="utf-8"?>
<!-- Generator: Adobe Illustrator 21.0.0, SVG Export Plug-In . SVG Version: 6.00 Build 0)  -->
<svg version="1.1" id="Layer_1" xmlns="http://www.w3.org/2000/svg" xmlns:xlink="http://www.w3.org/1999/xlink" x="0px" y="0px"
	 viewBox="0 0 19.1 24.9" style="enable-background:new 0 0 19.1 24.9;" xml:space="preserve">
<style type="text/css">
	.st0{fill:#485153;}
	.st1{fill:#8B8A8B;}
	.st2{fill:#FAFDFF;}
	.st3{fill:#F0A997;}
	.st4{opacity:0.45;}
</style>
<g>
	<path class="st0" d="M19.1,7c0,5.4,0,10.9,0,16.3c-0.1,0.4-0.1,0.8-0.4,1.1c-0.3,0.3-0.8,0.3-1.1,0.4c-5.3,0-10.6,0-16,0
		c-0.4-0.1-0.8-0.1-1.1-0.4c-0.3-0.3-0.3-0.7-0.4-1.1C0,16.1,0,8.8,0,1.5c0.1-0.4,0.1-0.8,0.4-1.1C0.7,0.1,1.2,0.1,1.6,0
		c3.5,0,7,0,10.4,0c0.2,0.2,0.2,0.5,0.2,0.7c0,1.3,0,2.6,0,3.9c0,0.2,0,0.4,0,0.6c0.1,1.1,0.6,1.6,1.7,1.6c1.4,0,2.9,0,4.3,0
		C18.6,6.8,18.9,6.7,19.1,7z"/>
	<path class="st1" d="M19.1,7c-1.7,0-3.4,0-5.1,0c-1.3,0-1.9-0.6-1.9-1.9c0-1.7,0-3.4,0-5.1c0.3,0,0.5,0,0.8,0
		c0.4,0.1,0.6,0.4,0.9,0.7c1.5,1.5,3.1,3.1,4.6,4.6c0.3,0.3,0.5,0.5,0.7,0.9C19.1,6.4,19.1,6.7,19.1,7z"/>
	<path class="st2" d="M1.6,0C0.8,0.2,0.3,0.8,0,1.5c0-0.5,0-0.9,0-1.4C0,0,0,0,0.2,0C0.7,0,1.2,0,1.6,0z"/>
	<path class="st2" d="M17.5,24.9c0.8-0.3,1.3-0.8,1.5-1.5c0,0.5,0,0.9,0,1.4c0,0.2,0,0.2-0.2,0.2C18.4,24.9,18,24.9,17.5,24.9z"/>
	<path class="st3" d="M12.1,15.9c0-1.6,1.1-2.4,2.5-1.9c0.1,0,0.2,0.1,0.3,0.2c0.1,0.1,0.4,0.2,0.2,0.4c-0.2,0.2-0.3,0.5-0.7,0.3
		c-0.7-0.4-1.4-0.1-1.4,0.8c0,0.2,0,0.4,0,0.5c0.1,0.7,0.7,1.1,1.4,0.7c0.2-0.1,0.7,0,0.8,0.2c0.1,0.2-0.1,0.2-0.1,0.3
		c-0.6,0.5-1.3,0.5-2,0.3c-0.6-0.2-0.9-0.7-1-1.3C12.1,16.2,12.1,16,12.1,15.9z"/>
	<path class="st3" d="M7.1,12.8c0-0.4-0.3-0.3-0.5-0.3c-0.2,0-0.5,0-0.4,0.3c0,0.5,0,0.9,0,1.4c-0.1,0-0.2-0.1-0.3-0.1
		c-1-0.4-1.9,0-2.1,1c-0.1,0.4-0.1,0.7-0.1,1.1c0.1,1.4,1.1,2,2.3,1.3c0.2-0.1,0.2-0.1,0.3,0.1c0.1,0.2,0.4,0.1,0.7,0.1
		c0.2,0,0.1-0.2,0.1-0.3C7.1,15.8,7.1,14.3,7.1,12.8z M6.2,15.9C6.2,16.7,6,17,5.3,17c-0.1,0-0.2,0-0.2,0c-0.4-0.2-0.5-0.5-0.5-0.9
		c0-0.5,0-1,0.4-1.3c0.3-0.2,0.7-0.1,1,0.1c0.1,0.1,0.2,0.2,0.2,0.3C6.2,15.4,6.2,15.6,6.2,15.9z"/>
	<path class="st3" d="M10.6,14.1c-1.2-0.6-2.5,0-2.7,1.4c0,0.3,0,0.6,0,0.9c0.2,0.9,0.7,1.3,1.5,1.4c1.3,0.1,2-0.6,2-1.9
		C11.5,15,11.2,14.4,10.6,14.1z M9.5,17C9.5,17,9.5,17,9.5,17c-0.6-0.1-0.8-0.9-0.6-1.7c0.1-0.5,0.5-0.7,1-0.6
		c0.4,0.1,0.6,0.4,0.6,1.1C10.5,16.7,10.2,17.1,9.5,17z"/>
</g>
</svg>
