<?xml version="1.0" encoding="utf-8"?>
<!-- Generator: Adobe Illustrator 21.0.0, SVG Export Plug-In . SVG Version: 6.00 Build 0)  -->
<svg version="1.1" id="icons" xmlns="http://www.w3.org/2000/svg" xmlns:xlink="http://www.w3.org/1999/xlink" x="0px" y="0px"
	 viewBox="0 0 54.1 50.9" style="enable-background:new 0 0 54.1 50.9;" xml:space="preserve">
<style type="text/css">
	.st0{fill:none;stroke:#ffffff;stroke-miterlimit:10;}
	.st1{fill:none;stroke:#ffffff;stroke-miterlimit:10;}
	.st2{fill:#333a3b;}
	.st3{fill:none;stroke:#ffffff;stroke-width:2;stroke-miterlimit:10;}
	.st4{fill:#FFFDEA;}
</style>
<g>
	
		<rect x="1.6" y="-1.6" transform="matrix(-1.836970e-16 1 -1 -1.836970e-16 52.4776 -1.5943)" class="st2" width="50.9" height="54.1"/>
	<g>
		<path class="st4" d="M39,17.9c0-0.2-0.1-0.4-0.2-0.6c-0.2-0.3-0.6-0.5-0.9-0.5c-2.9,0-5.9,0-8.8,0c0,0,0,0-0.1,0
			c0,0-0.1,0-0.1-0.1c0-0.2,0-0.3,0-0.5c0-0.5,0-1.1,0-1.6c0,0,0-0.1-0.1,0c-0.2,0-0.4,0.1-0.5,0.1c-1.2,0.2-2.3,0.4-3.5,0.7
			c-1.5,0.3-3,0.6-4.5,0.8c-1.5,0.3-3,0.6-4.5,0.8c-0.1,0-0.1,0-0.1,0.1c0,2.8,0,5.6,0,8.5c0,2.8,0,5.6,0,8.5c0,0,0,0,0,0
			c0,0,0,0,0,0c0.1,0,0.1,0,0.2,0c1.1,0.2,2.2,0.4,3.3,0.6c1.2,0.2,2.3,0.4,3.5,0.7c1.2,0.2,2.4,0.4,3.5,0.7
			c0.8,0.2,1.7,0.3,2.5,0.5c0.1,0,0.1,0,0.1-0.1c0-0.7,0-1.4,0-2.1c0-0.1,0-0.1,0.1-0.1c2.9,0,5.9,0,8.8,0c0.1,0,0.2,0,0.4-0.1
			c0.5-0.2,0.7-0.6,0.7-1C39,28.3,39,23.1,39,17.9C39,18,39,17.9,39,17.9z M24.8,29.4c-0.5,0-0.9-0.1-1.4-0.1l0,0
			c-0.2,0-0.2-0.1-0.3-0.2c-0.3-0.7-0.7-1.5-1-2.2c-0.1-0.2-0.1-0.3-0.1-0.5c0,0,0,0,0-0.1c0,0,0,0,0,0c-0.1,0.4-0.3,0.7-0.4,1.1
			c-0.3,0.5-0.5,1.1-0.8,1.6c0,0,0,0.1-0.1,0.1c-0.4,0-0.7-0.1-1.1-0.1c-0.1,0-0.2,0-0.4,0c0,0,0,0,0-0.1c0.2-0.3,0.3-0.6,0.5-1
			c0.4-0.8,0.9-1.6,1.3-2.4c0,0,0-0.1,0-0.1c-0.6-1.1-1.1-2.2-1.6-3.4c0,0,0,0,0-0.1c0.3,0,0.5,0,0.8-0.1c0.3,0,0.5,0,0.8-0.1
			c0,0,0.1,0,0.1,0c0.3,0.7,0.6,1.5,0.9,2.2c0.1,0.2,0.1,0.3,0.1,0.5c0,0,0,0,0,0c0,0,0,0,0,0c0.1-0.5,0.3-1,0.6-1.4
			c0.2-0.5,0.4-0.9,0.6-1.4c0,0,0-0.1,0.1-0.1c0.5,0,1-0.1,1.6-0.1c0,0,0,0,0.1,0c0,0,0,0,0,0.1c-0.7,1.2-1.3,2.5-2,3.7
			c0,0,0,0.1,0,0.1c0.7,1.3,1.4,2.5,2,3.8c0,0,0,0,0,0.1C24.9,29.5,24.8,29.4,24.8,29.4z M38.1,33.5C38.1,33.6,38.1,33.6,38.1,33.5
			L38.1,33.5L38.1,33.5L38.1,33.5C38.1,33.6,38.1,33.6,38.1,33.5c-3.1,0.1-6.1,0.1-9,0.1c0,0,0,0-0.1,0c0-0.3,0-0.6,0-0.9
			c0-0.1,0-0.3,0-0.4c0-0.1,0-0.1,0.1-0.1c1,0,2,0,3,0c0.1,0,0.1,0,0.1-0.1c0-0.6,0-1.2,0-1.8c0-0.1,0-0.1-0.1-0.1c-1,0-2,0-3,0
			c-0.1,0-0.1,0-0.1-0.1c0-0.2,0-0.4,0-0.6c0-0.1,0-0.1,0.1-0.1c1,0,2,0,3.1,0c0.1,0,0.1,0,0.1-0.1c0-0.6,0-1.2,0-1.8
			c0-0.1,0-0.1-0.1-0.1c-1,0-2,0-3.1,0c-0.1,0-0.1,0-0.1-0.1c0-0.2,0-0.4,0-0.6c0-0.1,0-0.1,0.1-0.1c1,0,2,0,3,0
			c0.1,0,0.1,0,0.1-0.1c0-0.6,0-1.2,0-1.9c0,0,0,0,0-0.1c0,0,0,0-0.1,0c-1,0-2,0-3,0c0,0,0,0-0.1,0c0-0.2,0-0.5,0-0.7c0,0,0,0,0,0
			c0,0,0,0,0.1,0c1,0,2,0,3,0c0,0,0,0,0.1,0c0-0.7,0-1.3,0-2c0,0,0,0-0.1,0c-1,0-2,0-3,0c-0.1,0-0.1,0-0.1-0.1c0-0.2,0-0.4,0-0.6
			c0-0.1,0-0.1,0.1-0.1c1,0,2,0,3,0c0.1,0,0.1,0,0.1-0.1c0-0.6,0-1.2,0-1.9c0-0.1,0-0.1-0.1-0.1c-1,0-2,0-3,0c-0.1,0-0.1,0-0.1-0.1
			c0-0.4,0-0.9,0-1.3c0,0,0,0,0-0.1c0,0,0,0,0.1,0c3,0,6,0,9,0c0,0,0,0,0.1,0l0,0l0,0c0,0,0,0,0,0c0,0,0,0,0,0.1
			C38.1,23.1,38.1,28.3,38.1,33.5z"/>
		<path class="st4" d="M38.1,33.6C38.1,33.6,38.1,33.6,38.1,33.6c0-5.3,0-10.5,0-15.7c0,0,0,0,0-0.1c0,0,0,0,0,0c0,0,0,0,0,0.1
			C38.1,23.1,38.1,28.3,38.1,33.6C38.1,33.6,38.1,33.6,38.1,33.6z"/>
		<path class="st4" d="M38.1,17.8C38.1,17.8,38.1,17.8,38.1,17.8c-3.1,0-6.1,0-9.1,0c0,0,0,0,0.1,0C32.1,17.8,35.1,17.8,38.1,17.8
			C38.1,17.8,38.1,17.8,38.1,17.8z"/>
		<path class="st4" d="M29,33.6c3,0,6,0,9,0c0,0,0,0,0.1,0c0,0,0,0-0.1,0C35.1,33.6,32.1,33.6,29,33.6C29.1,33.6,29,33.6,29,33.6z"
			/>
		<path class="st4" d="M29,24.7c1,0,2.1,0,3.1,0c0,0,0,0,0.1,0c0,0.6,0,1.3,0,1.9c0,0.1,0,0.1-0.1,0.1c-1,0-2,0-3,0c0,0,0,0-0.1,0
			c0,0,0.1,0,0.1,0c1,0,2,0,3,0c0.1,0,0.1,0,0.1-0.1c0-0.6,0-1.2,0-1.8c0-0.1,0-0.1-0.1-0.1C31.1,24.8,30.1,24.8,29,24.7
			C29.1,24.8,29,24.8,29,24.7z"/>
		<path class="st4" d="M32.2,22C32.2,22,32.2,22,32.2,22c0,0.7,0,1.3,0,1.9c0,0,0,0,0,0l0,0l0,0C32.2,23.3,32.2,22.6,32.2,22
			C32.2,22,32.2,22,32.2,22L32.2,22z"/>
		<path class="st4" d="M32.2,22C32.2,22,32.2,22,32.2,22c-1.1,0-2.1,0-3.2,0c0,0,0,0,0,0C30.1,22,31.1,22,32.2,22
			C32.1,22,32.2,22,32.2,22z"/>
		<path class="st4" d="M32.2,23.9L32.2,23.9C32.2,24,32.1,24,32.2,23.9c-1.1,0-2.1,0-3.1,0c0,0,0,0,0,0l0,0
			C30.1,23.9,31.1,23.9,32.2,23.9z"/>
		<path class="st4" d="M29,17.8c0,0.5,0,0.9,0,1.4l0,0C29,18.7,29,18.3,29,17.8C29,17.8,29,17.8,29,17.8z"/>
		<path class="st4" d="M29,33.6c0-0.5,0-0.9,0-1.4l0,0C29,32.7,29,33.1,29,33.6L29,33.6z"/>
		<path class="st4" d="M29,24.7c0-0.2,0-0.5,0-0.7l0,0C29,24.2,29,24.5,29,24.7L29,24.7z"/>
		<path class="st4" d="M29,26.8c0,0.2,0,0.5,0,0.7c0,0,0,0,0,0C29,27.2,29,27,29,26.8C29,26.8,29,26.8,29,26.8z"/>
		<path class="st4" d="M29,21.2c0,0.2,0,0.5,0,0.7l0,0C29,21.7,29,21.5,29,21.2C29,21.2,29,21.2,29,21.2z"/>
		<path class="st4" d="M29,29.5c0,0.2,0,0.4,0,0.7l0,0C29,30,29,29.7,29,29.5L29,29.5z"/>
		<path class="st4" d="M34.8,22c0.6,0,1.2,0,1.8,0c0.1,0,0.1,0,0.1,0.1c0,0.6,0,1.3,0,1.9c0,0,0,0.1-0.1,0.1c-1.2,0-2.4,0-3.5,0
			c0,0-0.1,0-0.1-0.1c0-0.6,0-1.3,0-1.9c0-0.1,0-0.1,0.1-0.1C33.7,22,34.2,22,34.8,22z"/>
		<path class="st4" d="M36.6,21.2C36.6,21.2,36.6,21.2,36.6,21.2c-1.2,0-2.4,0-3.6,0c-0.1,0-0.1,0-0.1-0.1c0-0.6,0-1.3,0-1.9
			c0,0,0-0.1,0.1-0.1c1.2,0,2.4,0,3.5,0c0,0,0,0,0,0c0,0,0,0,0,0.1C36.6,19.9,36.6,20.5,36.6,21.2C36.6,21.2,36.6,21.2,36.6,21.2z"
			/>
		<path class="st4" d="M36.6,32.2C36.6,32.2,36.6,32.2,36.6,32.2c-1.2,0-2.4,0-3.6,0c-0.1,0-0.1,0-0.1-0.1c0-0.6,0-1.3,0-1.9
			c0,0,0-0.1,0.1-0.1c1.2,0,2.4,0,3.5,0c0,0,0,0,0,0c0,0,0,0,0,0.1C36.6,30.9,36.6,31.5,36.6,32.2C36.6,32.2,36.6,32.2,36.6,32.2z"
			/>
		<path class="st4" d="M34.8,27.5c0.6,0,1.2,0,1.8,0c0,0,0.1,0,0.1,0.1c0,0.6,0,1.3,0,1.9c0,0,0,0.1-0.1,0.1c-1.2,0-2.4,0-3.5,0
			c-0.1,0-0.1,0-0.1-0.1c0-0.6,0-1.3,0-1.9c0,0,0-0.1,0.1-0.1C33.7,27.5,34.2,27.5,34.8,27.5z"/>
		<path class="st4" d="M33,24.8C33,24.7,33.1,24.7,33,24.8c1.2,0,2.4,0,3.6,0c0.1,0,0.1,0,0.1,0.1c0,0.6,0,1.2,0,1.9c0,0,0,0,0,0.1
			c0,0,0,0-0.1,0c-1.2,0-2.3,0-3.5,0c-0.1,0-0.1,0-0.1-0.1C33,26.1,33,25.4,33,24.8C33,24.8,33,24.8,33,24.8z"/>
		<path class="st4" d="M33,24.8c0,0.6,0,1.3,0,1.9c0,0.1,0,0.1,0.1,0.1c1.2,0,2.4,0,3.5,0c0,0,0,0-0.1,0c-1.2,0-2.3,0-3.5,0
			c0,0-0.1,0-0.1-0.1C33,26.1,33,25.4,33,24.8C33,24.8,33,24.8,33,24.8z"/>
		<path class="st4" d="M36.6,21.2c0-0.7,0-1.3,0-2c0,0,0,0,0,0.1C36.7,19.9,36.7,20.5,36.6,21.2C36.7,21.2,36.7,21.2,36.6,21.2z"/>
		<path class="st4" d="M36.6,32.2c0-0.7,0-1.3,0-2c0,0,0,0,0,0.1C36.7,30.9,36.7,31.5,36.6,32.2C36.7,32.2,36.7,32.2,36.6,32.2z"/>
		<path class="st4" d="M34.8,26.7c-0.6,0-1.2,0-1.7,0c-0.1,0-0.1,0-0.1-0.1c0-0.6,0-1.2,0-1.8c0-0.1,0-0.1,0.1-0.1
			c1.2,0,2.3,0,3.5,0c0.1,0,0.1,0,0.1,0.1c0,0.6,0,1.2,0,1.8c0,0.1,0,0.1-0.1,0.1C36,26.7,35.4,26.7,34.8,26.7z"/>
	</g>
</g>
</svg>
